<svg width="40" height="41" viewBox="0 0 40 41" fill="none" xmlns="http://www.w3.org/2000/svg">
<path d="M19.9994 0.145374C31.0454 0.145374 39.9994 9.07444 39.9994 20.0897V34.0507C39.9994 35.6376 39.3673 37.1594 38.2421 38.2815C37.1169 39.4036 35.5907 40.034 33.9994 40.034H20.9994V31.2844C20.9994 29.288 21.1214 27.2198 22.1714 25.5205C22.9232 24.3028 23.9288 23.2605 25.12 22.4643C26.3112 21.6682 27.6602 21.1369 29.0754 20.9064L29.4584 20.8446C29.6163 20.7908 29.7534 20.689 29.8505 20.5537C29.9475 20.4183 29.9997 20.2561 29.9997 20.0897C29.9997 19.9233 29.9475 19.761 29.8505 19.6257C29.7534 19.4903 29.6163 19.3886 29.4584 19.3348L29.0754 19.273C27.0076 18.9361 25.0981 17.9601 23.6166 16.4826C22.135 15.0052 21.1562 13.101 20.8184 11.039L20.7564 10.657C20.7025 10.4996 20.6005 10.3629 20.4647 10.2661C20.329 10.1693 20.1663 10.1173 19.9994 10.1173C19.8326 10.1173 19.6699 10.1693 19.5341 10.2661C19.3984 10.3629 19.2964 10.4996 19.2424 10.657L19.1804 11.039C18.9494 12.4503 18.4166 13.7955 17.6182 14.9835C16.8199 16.1714 15.7746 17.1741 14.5534 17.9237C12.8494 18.9708 10.7754 19.0925 8.77344 19.0925H0.0234375C0.546438 8.54093 9.28944 0.145374 19.9994 0.145374Z" fill="#5044E5"/>
<path d="M0 21.0869H8.774C10.776 21.0869 12.85 21.2086 14.554 22.2556C15.886 23.0741 17.0072 24.1923 17.828 25.5205C18.878 27.2198 19 29.288 19 31.2844V40.034H6C4.4087 40.034 2.88258 39.4036 1.75736 38.2815C0.632141 37.1594 0 35.6376 0 34.0507L0 21.0869ZM40 2.13981C40 2.66876 39.7893 3.17605 39.4142 3.55008C39.0391 3.92411 38.5304 4.13424 38 4.13424C37.4696 4.13424 36.9609 3.92411 36.5858 3.55008C36.2107 3.17605 36 2.66876 36 2.13981C36 1.61085 36.2107 1.10356 36.5858 0.72953C36.9609 0.355501 37.4696 0.145374 38 0.145374C38.5304 0.145374 39.0391 0.355501 39.4142 0.72953C39.7893 1.10356 40 1.61085 40 2.13981Z" fill="#5044E5"/>
</svg>
